<?xml version="1.0" encoding="utf-8"?>
<!-- Generator: Adobe Illustrator 15.0.2, SVG Export Plug-In . SVG Version: 6.00 Build 0)  -->
<!DOCTYPE svg PUBLIC "-//W3C//DTD SVG 1.1//EN" "http://www.w3.org/Graphics/SVG/1.1/DTD/svg11.dtd">
<svg version="1.1" id="Layer_1" xmlns="http://www.w3.org/2000/svg" xmlns:xlink="http://www.w3.org/1999/xlink" x="0px" y="0px"
	 width="427.472px" height="185.805px" viewBox="0 0 427.472 185.805" enable-background="new 0 0 427.472 185.805"
	 xml:space="preserve">
<path fill="#58789B" d="M50.044,0.599h32.584c4.951,0,9.204,0.54,12.759,1.617c3.553,1.078,6.487,2.557,8.805,4.433
	c2.315,1.877,4.032,4.073,5.151,6.589c1.117,2.516,1.677,5.171,1.677,7.966c0,5.591-1.638,10.144-4.912,13.657
	c-3.276,3.515-7.628,5.87-13.058,7.068c3.513,1.599,6.349,3.755,8.505,6.469c2.156,2.716,3.234,6.229,3.234,10.542
	c0,3.755-0.799,7.188-2.396,10.302c-1.599,3.115-3.914,5.811-6.948,8.086c-3.036,2.276-6.789,4.034-11.261,5.271
	c-4.474,1.239-9.625,1.856-15.454,1.856h-41.21L50.044,0.599z M71.487,68.284c4.631,0,8.285-0.938,10.962-2.815
	c2.675-1.875,4.013-4.451,4.013-7.727c0-2.475-0.958-4.412-2.875-5.81c-1.917-1.396-4.792-2.097-8.625-2.097H54.715l-4.912,18.449
	H71.487z M77.477,34.501c4.792,0,8.505-0.818,11.141-2.456c2.636-1.636,3.953-4.212,3.953-7.727c0-2.156-0.919-3.953-2.755-5.391
	c-1.838-1.438-4.792-2.157-8.865-2.157H63.581l-4.672,17.73H77.477z"/>
<path fill="#58789B" d="M134.413,0.599h30.548c6.229,0,11.517,0.7,15.865,2.097c4.348,1.398,7.912,3.495,10.69,6.289
	c4.284,4.312,6.427,9.943,6.427,16.892c0,4.073-0.655,7.786-1.965,11.141s-3.193,6.271-5.653,8.745
	c-4.771,4.792-11.229,8.146-19.375,10.063l14.256,28.631h-20.965l-12.938-26.834h-13.776l-7.188,26.834h-18.449L134.413,0.599z
	 M158.412,41.45c3.593,0,6.847-0.44,9.763-1.324c2.914-0.883,5.29-2.248,7.127-4.093c2.316-2.328,3.475-5.178,3.475-8.548
	c0-2.729-0.88-4.976-2.636-6.743c-2.318-2.327-6.391-3.491-12.22-3.491h-15.454L142,41.45H158.412z"/>
<path fill="#58789B" d="M222.381,0.599h18.448l-22.521,83.857h-18.449L222.381,0.599z"/>
<path fill="#58789B" d="M289.587,0h17.73l13.297,84.457h-18.927l-2.636-18.808h-35.46l-12.699,18.808h-19.886L289.587,0z
	 M296.895,49.476l-3.833-27.673l-18.449,27.673H296.895z"/>
<path fill="#58789B" d="M353.438,0.599h17.011l24.438,53.31l14.376-53.31h18.208L404.95,84.457h-15.693L363.861,29.47
	l-14.735,54.986h-18.209L353.438,0.599z"/>
<path fill="#58789B" d="M22.522,100.099h32.584c4.952,0,9.204,0.54,12.759,1.618c3.553,1.078,6.487,2.557,8.805,4.432
	c2.315,1.877,4.032,4.073,5.151,6.589c1.117,2.516,1.677,5.172,1.677,7.966c0,5.592-1.638,10.144-4.912,13.658
	c-3.275,3.515-7.628,5.87-13.058,7.067c3.513,1.599,6.349,3.755,8.505,6.469c2.157,2.716,3.234,6.229,3.234,10.542
	c0,3.755-0.799,7.188-2.396,10.303c-1.599,3.115-3.915,5.811-6.948,8.087c-3.037,2.276-6.79,4.034-11.261,5.271
	c-4.474,1.239-9.625,1.856-15.454,1.856H0L22.522,100.099z M43.965,167.785c4.631,0,8.285-0.938,10.961-2.815
	c2.675-1.875,4.013-4.451,4.013-7.726c0-2.475-0.958-4.413-2.875-5.811c-1.917-1.396-4.792-2.096-8.625-2.096H27.194l-4.912,18.449
	H43.965z M49.955,134.002c4.792,0,8.505-0.818,11.141-2.456c2.636-1.636,3.953-4.211,3.953-7.727c0-2.156-0.919-3.952-2.755-5.391
	c-1.838-1.437-4.792-2.156-8.865-2.156H36.059l-4.672,17.73H49.955z"/>
<path fill="#58789B" d="M124.061,185.275c-4.873,0-9.245-0.64-13.118-1.917c-3.875-1.276-7.169-3.114-9.883-5.51
	c-2.716-2.396-4.792-5.35-6.229-8.865c-1.438-3.514-2.157-7.506-2.157-11.979c0-4.152,0.678-8.626,2.037-13.418l11.62-43.486h18.449
	l-12.1,45.164c-0.4,1.438-0.718,2.875-0.958,4.313c-0.24,1.437-0.36,3.036-0.36,4.792c0,4.153,1.237,7.507,3.714,10.063
	c2.474,2.556,6.109,3.833,10.901,3.833c5.43,0,9.982-1.756,13.657-5.271c3.673-3.673,6.389-8.865,8.146-15.573l12.698-47.321h18.45
	l-13.418,49.956c-2.875,10.862-7.188,19.167-12.938,24.917c-3.434,3.435-7.487,6.011-12.159,7.727
	C135.741,184.416,130.29,185.275,124.061,185.275z"/>
<path fill="#58789B" d="M196.322,100.099h18.449l-22.521,83.858H173.8L196.322,100.099z"/>
<path fill="#58789B" d="M232.764,100.099h62.654l-4.432,16.413h-44.325l-4.552,17.13h38.934l-4.433,16.174h-38.934l-4.792,17.729
	h45.043l-4.432,16.412h-63.253L232.764,100.099z"/>
</svg>
