<?xml version="1.0" encoding="utf-8"?>
<!-- Generator: Adobe Illustrator 15.0.2, SVG Export Plug-In . SVG Version: 6.00 Build 0)  -->
<!DOCTYPE svg PUBLIC "-//W3C//DTD SVG 1.1//EN" "http://www.w3.org/Graphics/SVG/1.1/DTD/svg11.dtd">
<svg version="1.1" id="Layer_1" xmlns="http://www.w3.org/2000/svg" xmlns:xlink="http://www.w3.org/1999/xlink" x="0px" y="0px"
	 width="575px" height="240px" viewBox="0 0 575 240" enable-background="new 0 0 575 240" xml:space="preserve">
<path class="letter" d="M191.499,30.726h32.912c5.001,0,9.296,0.545,12.887,1.634c3.588,1.089,6.553,2.583,8.894,4.477
	c2.338,1.896,4.072,4.114,5.203,6.655c1.128,2.541,1.694,5.224,1.694,8.046c0,5.647-1.654,10.246-4.961,13.794
	c-3.309,3.551-7.705,5.929-13.189,7.139c3.548,1.615,6.413,3.792,8.591,6.534c2.178,2.743,3.267,6.292,3.267,10.648
	c0,3.792-0.807,7.26-2.42,10.406c-1.615,3.146-3.954,5.869-7.018,8.167c-3.067,2.299-6.857,4.075-11.374,5.324
	c-4.519,1.251-9.722,1.875-15.609,1.875H168.75L191.499,30.726z M213.157,99.091c4.678,0,8.368-0.947,11.072-2.844
	c2.702-1.894,4.053-4.496,4.053-7.804c0-2.5-0.968-4.456-2.904-5.869c-1.936-1.41-4.84-2.118-8.712-2.118h-20.449l-4.961,18.634
	H213.157z M219.208,64.969c4.84,0,8.591-0.826,11.253-2.48c2.662-1.652,3.993-4.254,3.993-7.805c0-2.178-0.928-3.993-2.783-5.445
	c-1.856-1.452-4.84-2.178-8.954-2.178h-17.545l-4.719,17.908H219.208z"/>
<path class="letter" d="M276.715,30.726h30.855c6.291,0,11.633,0.708,16.024,2.118c4.392,1.412,7.991,3.53,10.798,6.353
	c4.327,4.356,6.492,10.043,6.492,17.061c0,4.114-0.662,7.865-1.985,11.253s-3.226,6.333-5.71,8.833
	c-4.818,4.84-11.342,8.228-19.569,10.164l14.399,28.919h-21.176l-13.068-27.104h-13.915l-7.26,27.104h-18.634L276.715,30.726z
	 M300.955,71.987c3.629,0,6.916-0.444,9.861-1.337c2.943-0.892,5.343-2.271,7.199-4.135c2.339-2.352,3.51-5.229,3.51-8.634
	c0-2.756-0.889-5.025-2.662-6.81c-2.342-2.35-6.455-3.526-12.343-3.526h-15.608l-6.534,24.442H300.955z"/>
<path class="letter" d="M365.567,30.726h18.634l-22.748,84.7h-18.634L365.567,30.726z"/>
<path class="letter" d="M433.448,30.121h17.908l13.431,85.305H445.67l-2.662-18.997h-35.816l-12.826,18.997h-20.086L433.448,30.121z
	 M440.829,80.094l-3.872-27.951l-18.634,27.951H440.829z"/>
<path class="letter" d="M497.941,30.726h17.182l24.684,53.845l14.521-53.845h18.392l-22.748,84.7H534.12l-25.651-55.539
	l-14.883,55.539h-18.393L497.941,30.726z"/>
<path class="letter" d="M163.7,131.226h32.912c5.001,0,9.296,0.545,12.887,1.634c3.588,1.089,6.553,2.582,8.894,4.477
	c2.338,1.896,4.072,4.114,5.203,6.655c1.128,2.541,1.694,5.224,1.694,8.046c0,5.648-1.654,10.246-4.961,13.795
	c-3.309,3.551-7.705,5.929-13.189,7.139c3.548,1.615,6.413,3.793,8.591,6.534c2.178,2.743,3.267,6.292,3.267,10.647
	c0,3.793-0.807,7.26-2.42,10.406c-1.615,3.146-3.954,5.869-7.018,8.168c-3.067,2.299-6.857,4.074-11.374,5.324
	c-4.519,1.251-9.722,1.875-15.609,1.875h-41.624L163.7,131.226z M185.359,199.591c4.678,0,8.368-0.947,11.072-2.844
	c2.702-1.894,4.053-4.495,4.053-7.804c0-2.5-0.968-4.457-2.904-5.869c-1.936-1.41-4.84-2.117-8.712-2.117h-20.449l-4.961,18.634
	H185.359z M191.409,165.469c4.84,0,8.591-0.826,11.253-2.48c2.662-1.652,3.993-4.254,3.993-7.805c0-2.178-0.928-3.992-2.783-5.445
	c-1.856-1.451-4.84-2.178-8.954-2.178h-17.545l-4.719,17.908H191.409z"/>
<path class="letter" d="M266.259,217.257c-4.921,0-9.338-0.646-13.25-1.937c-3.914-1.289-7.241-3.146-9.982-5.565
	c-2.743-2.42-4.84-5.403-6.292-8.954c-1.452-3.549-2.178-7.582-2.178-12.1c0-4.193,0.685-8.713,2.057-13.553l11.737-43.923h18.634
	l-12.221,45.617c-0.404,1.452-0.726,2.903-0.968,4.356c-0.242,1.451-0.363,3.066-0.363,4.84c0,4.195,1.25,7.583,3.751,10.164
	c2.499,2.582,6.171,3.871,11.011,3.871c5.485,0,10.083-1.773,13.794-5.323c3.709-3.71,6.453-8.954,8.228-15.729l12.826-47.796
	h18.635l-13.553,50.457c-2.904,10.972-7.26,19.36-13.068,25.168c-3.469,3.47-7.562,6.071-12.281,7.805
	C278.057,216.389,272.551,217.257,266.259,217.257z"/>
<path class="letter" d="M339.246,131.226h18.635l-22.748,84.7h-18.635L339.246,131.226z"/>
<path class="letter" d="M376.055,131.226h63.283l-4.477,16.577h-44.771l-4.598,17.303h39.325l-4.478,16.336h-39.325l-4.84,17.907
	h45.496l-4.477,16.577h-63.889L376.055,131.226z"/>
<g>
	<polygon fill="#9F4C3C" points="9.354,209.804 39.196,173.775 87.832,209.32 	"/>
	<polygon fill="#762E2E" points="107.424,217.91 98.484,217.11 39.196,173.775 119.468,194.26 	"/>
	<polygon fill="#B56740" points="117.977,47.359 123.257,10.628 91.085,36.76 	"/>
	<polygon fill="#411D1D" points="131.068,45.337 148.701,26.047 136.12,10.415 	"/>
	<polygon fill="#B56740" points="91.085,36.76 89.289,6.813 114.083,3.58 	"/>
	<polygon fill="#9F4C3C" points="114.083,3.58 123.257,10.628 91.085,36.76 	"/>
	<polygon fill="#B56740" points="67.695,92.774 23.269,161.043 14.555,162.393 3.803,176.98 9.354,209.804 52.858,157.26 
		43.056,157.979 42.426,158.076 42.909,157.994 37.144,158.43 61.864,119.306 	"/>
	<polygon fill="#525252" points="61.878,119.294 67.695,92.774 61.864,119.306 	"/>
	<polygon fill="#B56740" points="95.423,46.729 91.085,36.76 67.695,92.774 83.929,76.496 	"/>
	<polygon fill="#303030" points="81.922,145.316 81.707,145.717 81.875,145.513 	"/>
	<polygon fill="#411D1D" points="115.9,102.781 131.068,45.337 112.446,85.694 111.169,88.196 109.789,93.673 108.693,93.052 
		104.009,102.202 108.566,104.536 107.938,112.791 103.566,169.732 103.563,169.743 103.414,171.725 80.565,157.797 83.323,147.5 
		84.871,141.732 86.124,137.084 86.348,136.291 81.936,145.283 81.922,145.316 81.875,145.513 81.707,145.717 74.113,180.49 
		73.723,182.586 119.468,194.26 111.18,178.097 	"/>
	<polygon fill="#762E2E" points="103.273,101.832 104.009,102.202 108.693,93.052 107.848,92.571 	"/>
	<polygon fill="#767676" points="81.936,145.283 81.707,145.717 81.922,145.316 	"/>
	<polygon fill="#762E2E" points="100.964,59.399 105.695,70.182 113.121,45.448 106.032,42.648 100.576,58.437 	"/>
	<polygon fill="#676767" points="117.977,47.359 117.522,47.175 117.964,47.479 	"/>
	<polygon fill="#762E2E" points="97.188,42.2 105.661,42.501 91.085,36.76 95.423,46.729 	"/>
	
		<rect x="117.91" y="47.419" transform="matrix(-0.1047 0.9945 -0.9945 -0.1047 177.4785 -64.9388)" fill="#676767" width="0.121" height="0"/>
	<polygon fill="#676767" points="100.964,59.399 100.962,59.405 100.964,59.399 	"/>
	<polygon fill="#676767" points="100.964,59.399 100.964,59.399 100.964,59.399 	"/>
	<polygon fill="#676767" points="95.423,46.729 91.085,36.76 95.423,46.729 	"/>
	<rect x="100.77" y="58.399" fill="#676767" width="0" height="1.038"/>
	<polygon fill="#762E2E" points="136.119,10.421 136.12,10.415 136.099,10.415 114.083,3.58 123.257,10.628 123.257,10.628 
		117.977,47.359 117.964,47.479 120.95,49.522 113.325,79.701 113.321,79.726 112.434,83.218 112.042,84.742 111.169,88.196 
		112.446,85.694 131.068,45.337 136.118,10.428 136.14,10.428 	"/>
	<polygon fill="#B56740" points="100.245,88.301 105.687,70.181 105.695,70.182 100.964,59.399 100.962,59.405 81.707,145.717 
		81.936,145.283 86.348,136.291 96.54,98.381 103.273,101.832 107.848,92.571 	"/>
	<polygon fill="#676767" points="100.964,59.399 100.962,59.405 100.962,59.405 	"/>
	<polygon fill="#676767" points="112.042,84.742 112.446,85.694 112.042,84.742 	"/>
	<polygon fill="#9F4C3C" points="100.576,58.437 99.828,60.55 97.506,67.273 91.073,85.711 89.335,85.692 80.446,85.553 
		83.929,76.496 67.695,92.774 61.878,119.294 77.328,94.833 84.997,95.454 88.231,95.718 66.629,156.229 57.821,156.892 
		53.546,157.2 52.858,157.26 39.196,173.775 48.997,176.289 48.958,176.375 73.723,182.586 81.707,145.717 100.962,59.405 
		100.964,59.399 	"/>
	
		<rect x="52.596" y="156.704" transform="matrix(0.6354 -0.7722 0.7722 0.6354 -101.5628 98.297)" fill="#FFFFFF" width="1.439" height="0"/>
	<polygon fill="#FFFFFF" points="53.773,156.148 42.909,157.994 43.056,157.979 53.773,156.148 	"/>
	<polygon fill="#FFFFFF" points="53.773,156.148 53.773,156.148 53.773,156.148 	"/>
	<polygon fill="#FFFFFF" points="106.08,42.525 105.661,42.501 106.032,42.648 	"/>
	<polygon fill="#762E2E" points="9.354,209.804 14.146,218.235 37.73,220.892 68.376,209.44 	"/>
	<polygon fill="#411D1D" points="19.604,227.649 57.035,237.258 105.22,222.088 79.256,218.873 	"/>
</g>
</svg>
