<?xml version="1.0" encoding="utf-8"?>
<!-- Generator: Adobe Illustrator 15.0.2, SVG Export Plug-In . SVG Version: 6.00 Build 0)  -->
<!DOCTYPE svg PUBLIC "-//W3C//DTD SVG 1.1//EN" "http://www.w3.org/Graphics/SVG/1.1/DTD/svg11.dtd">
<svg version="1.1" id="Layer_1" xmlns="http://www.w3.org/2000/svg" xmlns:xlink="http://www.w3.org/1999/xlink" x="0px" y="0px"
	 width="1406.93px" height="397.887px" viewBox="0 0 1406.93 397.887" enable-background="new 0 0 1406.93 397.887"
	 xml:space="preserve">
<polygon class="background" points="0,397.887 0,0 1406.895,0 "/>
<g>
	<path class="letter" d="M201.928,117.984l27.406-7.471c4.165-1.136,7.864-1.657,11.102-1.565c3.235,0.093,6.043,0.664,8.421,1.709
		c2.377,1.048,4.325,2.502,5.844,4.36c1.516,1.861,2.596,3.965,3.237,6.315c1.282,4.703,0.949,8.908-1,12.612
		c-1.949,3.708-5.07,6.686-9.362,8.939c3.321,0.539,6.201,1.701,8.637,3.49c2.437,1.791,4.149,4.498,5.138,8.125
		c0.86,3.157,0.976,6.229,0.347,9.214c-0.63,2.986-1.96,5.784-3.99,8.394c-2.032,2.61-4.785,4.948-8.262,7.013
		c-3.479,2.068-7.67,3.769-12.572,5.105l-34.661,9.449L201.928,117.984z M235.48,169.994c3.896-1.062,6.754-2.688,8.574-4.881
		c1.82-2.191,2.354-4.664,1.604-7.418c-0.567-2.082-1.817-3.491-3.751-4.228c-1.932-0.735-4.511-0.665-7.735,0.213l-17.027,4.642
		l0.1,16.643L235.48,169.994L235.48,169.994z M232.773,140.208c4.03-1.098,6.966-2.638,8.807-4.619
		c1.842-1.979,2.359-4.449,1.554-7.406c-0.494-1.815-1.68-3.114-3.554-3.902c-1.875-0.787-4.524-0.714-7.95,0.218l-14.609,3.983
		l0.136,15.983L232.773,140.208z"/>
	<path class="letter" d="M272.886,98.641l25.692-7.004c5.239-1.428,9.848-2.051,13.823-1.873c3.979,0.179,7.456,1.125,10.434,2.838
		c4.592,2.645,7.687,6.889,9.278,12.733c0.935,3.425,1.235,6.699,0.901,9.821c-0.332,3.121-1.249,6.005-2.749,8.651
		c-2.914,5.124-7.577,9.425-13.988,12.905l18.555,20.812L317.2,162.33l-17.033-19.602l-11.587,3.159l0.108,24.217l-15.518,4.229
		L272.886,98.641z M302.436,127.495c3.022-0.823,5.659-1.939,7.908-3.351c2.247-1.411,3.933-3.104,5.056-5.077
		c1.414-2.489,1.737-5.151,0.963-7.986c-0.627-2.294-1.881-3.983-3.763-5.067c-2.482-1.425-6.174-1.471-11.078-0.133l-12.996,3.542
		l0.107,21.836L302.436,127.495z"/>
	<path class="letter" d="M346.871,78.473l15.516-4.229l0.285,75.691l-15.516,4.229L346.871,78.473z"/>
	<path class="letter" d="M403.258,62.56l14.912-4.065l30.546,67.984l-15.917,4.339l-6.529-15.213l-29.823,8.129l-6.368,18.73l-16.725,4.559
		L403.258,62.56z M420.747,102.496l-9.569-22.395l-9.171,27.503L420.747,102.496z"/>
	<path class="letter" d="M457.098,48.423l14.307-3.9l32.777,39.233l-0.131-48.133l15.313-4.174l0.285,75.691l-13.2,3.599l-33.966-40.423
		l0.215,49.625l-15.315,4.175L457.098,48.423z"/>
	<path class="letter" d="M201.593,207.979l27.405-7.469c4.164-1.136,7.864-1.658,11.102-1.567c3.234,0.093,6.042,0.663,8.422,1.709
		c2.376,1.047,4.324,2.502,5.843,4.361c1.516,1.86,2.596,3.964,3.237,6.314c1.281,4.703,0.949,8.908-1,12.613
		c-1.948,3.707-5.07,6.686-9.362,8.938c3.321,0.539,6.202,1.703,8.637,3.49c2.436,1.789,4.148,4.498,5.138,8.125
		c0.86,3.156,0.976,6.229,0.347,9.213c-0.631,2.986-1.961,5.785-3.99,8.395c-2.032,2.609-4.785,4.951-8.262,7.016
		c-3.479,2.068-7.67,3.768-12.572,5.105l-34.659,9.449L201.593,207.979z M235.146,259.988c3.896-1.061,6.754-2.688,8.575-4.881
		c1.82-2.191,2.354-4.664,1.604-7.418c-0.568-2.082-1.818-3.492-3.75-4.229c-1.933-0.734-4.51-0.664-7.735,0.215l-17.027,4.643
		l0.098,16.643L235.146,259.988z M232.439,230.203c4.029-1.1,6.966-2.639,8.807-4.619c1.842-1.98,2.358-4.449,1.552-7.408
		c-0.494-1.812-1.678-3.113-3.552-3.9c-1.875-0.789-4.525-0.717-7.951,0.217l-14.609,3.984l0.135,15.982L232.439,230.203z"/>
	<path class="letter" d="M306.52,256.336c-4.097,1.117-7.921,1.582-11.473,1.395c-3.551-0.186-6.742-0.975-9.575-2.367
		c-2.833-1.393-5.256-3.402-7.272-6.029c-2.014-2.625-3.534-5.818-4.561-9.582c-0.952-3.49-1.406-7.408-1.363-11.75l-0.197-39.239
		l15.516-4.229l0.18,40.759c-0.008,1.301,0.054,2.584,0.182,3.848c0.127,1.262,0.394,2.635,0.797,4.111
		c0.952,3.492,2.762,6.031,5.43,7.613c2.666,1.582,6.016,1.822,10.047,0.725c4.567-1.246,7.994-3.768,10.278-7.564
		c2.247-3.932,3.34-8.92,3.281-14.965l-0.17-42.711l15.517-4.23l0.168,45.091c0.073,9.795-1.65,17.77-5.169,23.924
		c-2.101,3.678-4.917,6.771-8.454,9.285C316.148,252.934,311.759,254.906,306.52,256.336z"/>
	<path class="letter" d="M347.768,168.132l15.517-4.23l0.285,75.689l-15.517,4.23L347.768,168.132z"/>
	<path class="letter" d="M378.417,159.776l52.695-14.365l0.035,14.818l-37.279,10.163l0.099,15.451l32.746-8.926l-0.021,14.62l-32.746,8.926
		l0.035,16.011l37.884-10.328l0.035,14.82L378.7,235.469L378.417,159.776z"/>
</g>
<g>
	<path class="buoy" d="M148.264,100.191l16.085-23.928l-16.366-15.094l-25.182-3.866L96.386,64.99l6.855,32.378l-16.363,64.935
		l-37.311,81.741l-9.286,2.896l-9.347,17.674l11.42,34.901l6.608,8.416l26.163-0.957l31.583-17.368l21.181-3.445l12.899,6.758
		l9.884-0.588l9.276-27.771l-11.685-16.279l-7.159-82.94L148.264,100.191z M110.787,102.306l9.755-1.11l-9.314,49.581l-11.621,1.564
		L110.787,102.306z M96.086,231.705l-31.809,7.22l33.446-75.951l12.04-0.817L96.086,231.705z M138.75,242.599l-27.204-11.46
		l7.715-67.434l14.128,4.75L138.75,242.599z M132.949,156.403l-11.291-4.301l7.173-49.792l9.077,4.1L132.949,156.403z"/>
	<polygon class="buoy" fill="#DD7017" points="56.454,317.31 98.861,321.674 148.952,297.249 120.1,297.985 	"/>
</g>
</svg>
